<?xml version="1.0" standalone="no"?>
<!DOCTYPE svg PUBLIC "-//W3C//DTD SVG 20010904//EN"
 "http://www.w3.org/TR/2001/REC-SVG-20010904/DTD/svg10.dtd">
<svg version="1.0" xmlns="http://www.w3.org/2000/svg"
 width="700.000000pt" height="700.000000pt" viewBox="0 0 700.000000 700.000000"
 preserveAspectRatio="xMidYMid meet">
<metadata>
Created by potrace 1.14, written by Peter Selinger 2001-2017
</metadata>
<g transform="translate(0.000000,700.000000) scale(0.100000,-0.100000)"
fill="#000000" stroke="none">
<path d="M1255 6993 c-138 -12 -350 -75 -485 -143 -386 -196 -644 -533 -742
-971 l-23 -104 0 -2275 0 -2275 23 -104 c128 -568 527 -968 1095 -1093 l102
-23 2275 0 2275 0 102 23 c566 125 970 529 1095 1095 l23 102 0 2275 0 2275
-23 102 c-125 566 -522 964 -1090 1095 l-97 22 -2245 2 c-1235 0 -2263 -1
-2285 -3z m4250 -2174 c266 -32 494 -139 555 -260 36 -69 20 -129 -49 -192
-39 -35 -44 -37 -64 -24 -215 140 -393 197 -612 197 -564 0 -915 -402 -915
-1045 0 -490 204 -847 555 -974 217 -78 491 -82 707 -11 93 31 199 81 261 124
21 14 44 26 51 26 18 0 85 -67 97 -97 13 -36 11 -100 -5 -131 -34 -64 -116
-121 -255 -177 -138 -55 -248 -75 -446 -82 -192 -6 -330 9 -483 53 -423 123
-721 469 -808 939 -26 140 -30 437 -9 588 61 430 277 760 613 934 109 57 250
105 362 123 41 6 82 13 90 15 40 8 275 4 355 -6z m-4074 -56 c24 -11 60 -35
78 -54 53 -52 200 -370 521 -1123 91 -214 170 -391 175 -393 6 -2 70 140 144
314 196 465 539 1235 553 1245 32 20 101 32 193 33 89 0 105 -3 144 -25 81
-45 91 -84 135 -480 39 -345 67 -698 126 -1579 22 -325 27 -448 19 -458 -17
-20 -106 -43 -163 -43 -106 1 -158 48 -170 155 -11 89 -116 1944 -116 2037 0
58 -23 20 -95 -157 -55 -138 -506 -1176 -575 -1327 -20 -43 -98 -72 -195 -72
-93 -1 -147 21 -181 71 -58 88 -387 829 -579 1306 -48 119 -91 217 -96 217 -5
0 -9 -15 -9 -33 0 -80 -34 -696 -70 -1272 -22 -346 -42 -690 -46 -763 -8 -156
-5 -151 -125 -159 -100 -7 -158 12 -184 61 -16 30 -18 52 -12 227 8 247 57
1013 102 1594 20 248 38 482 41 520 3 39 7 79 9 91 5 23 81 68 141 84 59 14
184 5 235 -17z"/>
</g>
</svg>
