<svg xmlns="http://www.w3.org/2000/svg" width="256" height="256" viewBox="0 0 100 100"><rect width="100" height="100" rx="20" fill="#7d6ee7"></rect><path fill="#fff" d="M34.16 58.76L34.16 58.76Q33.74 59.06 33.05 59.30Q32.36 59.54 31.52 59.54L31.52 59.54Q30.56 59.54 29.81 59.24Q29.06 58.94 28.76 58.28L28.76 58.28Q25.52 51.56 23.18 45.98Q20.84 40.40 19.40 36.74L19.40 36.74L19.16 36.74Q18.98 41.24 18.77 45.11Q18.56 48.98 18.32 52.67Q18.08 56.36 17.84 60.14Q17.60 63.92 17.36 68.24L17.36 68.24Q17.00 68.36 16.43 68.48Q15.86 68.60 15.20 68.60L15.20 68.60Q13.88 68.60 13.34 68.06Q12.80 67.52 12.80 66.50L12.80 66.50Q12.80 65.90 12.89 63.92Q12.98 61.94 13.16 59.12Q13.34 56.30 13.55 52.88Q13.76 49.46 14.03 45.92Q14.30 42.38 14.57 38.96Q14.84 35.54 15.08 32.72L15.08 32.72Q15.56 32.30 16.46 31.94Q17.36 31.58 18.50 31.58L18.50 31.58Q21.26 31.58 22.34 33.80L22.34 33.80Q23.48 36.14 24.65 38.75Q25.82 41.36 26.99 44.06Q28.16 46.76 29.27 49.40Q30.38 52.04 31.40 54.44L31.40 54.44L31.64 54.44Q32.96 51.26 34.28 48.17Q35.60 45.08 36.86 42.20Q38.12 39.32 39.26 36.80Q40.40 34.28 41.30 32.18L41.30 32.18Q41.84 31.88 42.68 31.73Q43.52 31.58 44.24 31.58L44.24 31.58Q47.06 31.58 47.48 33.50L47.48 33.50Q47.72 34.58 48.02 37.07Q48.32 39.56 48.62 42.80Q48.92 46.04 49.19 49.76Q49.46 53.48 49.70 56.93Q49.94 60.38 50.12 63.29Q50.30 66.20 50.42 67.88L50.42 67.88Q49.34 68.60 47.90 68.60L47.90 68.60Q47 68.60 46.31 68.15Q45.62 67.70 45.50 66.50L45.50 66.50Q45.20 62.12 44.96 57.80Q44.72 53.48 44.51 49.58Q44.30 45.68 44.12 42.41Q43.94 39.14 43.82 36.86L43.82 36.86L43.58 36.86Q42.92 38.54 42.05 40.64Q41.18 42.74 40.01 45.38Q38.84 48.02 37.40 51.35Q35.96 54.68 34.16 58.76ZM86.84 35.78L86.84 35.78Q86.84 36.62 86.33 37.22Q85.82 37.82 85.16 38.12L85.16 38.12Q83.60 37.04 81.50 36.08Q79.40 35.12 76.04 35.12L76.04 35.12Q73.28 35.12 70.94 36.08Q68.60 37.04 66.86 38.90Q65.12 40.76 64.13 43.58Q63.14 46.40 63.14 50.06L63.14 50.06Q63.14 53.78 64.10 56.54Q65.06 59.30 66.77 61.16Q68.48 63.02 70.88 63.95Q73.28 64.88 76.22 64.88L76.22 64.88Q79.34 64.88 81.65 64.01Q83.96 63.14 85.52 61.94L85.52 61.94Q86.12 62.18 86.66 62.81Q87.20 63.44 87.20 64.28L87.20 64.28Q87.20 65.54 85.76 66.56L85.76 66.56Q84.38 67.52 81.98 68.27Q79.58 69.02 75.86 69.02L75.86 69.02Q72.08 69.02 68.84 67.82Q65.60 66.62 63.23 64.25Q60.86 61.88 59.48 58.34Q58.10 54.80 58.10 50.06L58.10 50.06Q58.10 45.32 59.51 41.75Q60.92 38.18 63.32 35.78Q65.72 33.38 68.93 32.18Q72.14 30.98 75.68 30.98L75.68 30.98Q78.14 30.98 80.21 31.40Q82.28 31.82 83.75 32.51Q85.22 33.20 86.03 34.07Q86.84 34.94 86.84 35.78Z"></path></svg>